<svg width="169" height="48" viewBox="0 0 169 48" fill="none" xmlns="http://www.w3.org/2000/svg">
<path d="M42.998 6.09263L41.7372 5.36516V5.38663C42.2624 5.79657 42.5059 6.43399 42.5059 7.00307V20.8138C42.5059 23.8006 42.5059 25.7919 37.89 28.4569L26.9211 34.7981C26.3403 34.4724 25.7612 34.1436 25.1953 33.7933L36.1655 27.4514C40.7814 24.7864 40.7814 22.7952 40.7814 19.8083C40.7814 19.8083 40.7814 6.78695 40.7814 5.99416C40.7814 5.35165 40.4711 4.62385 39.7955 4.23283C39.5766 4.10618 38.0076 3.20107 37.4255 2.86531V2.88656C37.951 3.29647 38.1948 3.93415 38.1948 4.50346V18.3142C38.1948 21.301 38.1948 23.2923 33.5788 25.9573L22.8965 32.1332C22.5769 31.824 22.3071 31.4827 22.1506 31.1024C22.0858 30.9453 22.0397 30.7823 22.0045 30.6166L31.8543 24.9624C36.4703 22.2974 36.4703 20.3061 36.4703 17.3193C36.4703 17.3193 36.4703 4.29791 36.4703 3.50511C36.4703 2.86263 36.1599 2.13481 35.4843 1.74378C35.2149 1.58788 32.8999 0.252644 32.8976 0.251339C32.222 -0.139684 31.4182 -0.033027 30.8618 0.288204C30.8618 0.288204 23.035 4.81319 20.9682 6.00809L20.7159 5.8727L20.2153 5.589C16.8372 4.08758 15.2432 5.00499 13.0053 6.29705C13.0053 6.29705 1.7284 12.8077 1.04182 13.2042C0.485402 13.5254 0.0103 14.1581 0.00948174 14.9387L0.00985798 16.3943L0.0284338 16.3836C0.120893 15.7238 0.551147 15.1942 1.04401 14.9097L13.0044 8.00429C15.5911 6.51088 17.3156 5.51525 21.9315 8.18023L32.9079 14.5092C32.9162 15.1754 32.9227 15.8416 32.9024 16.5072L21.923 10.1764C17.307 7.51144 15.5826 8.50706 12.9959 10.0005C12.9959 10.0005 1.71904 16.5112 1.03244 16.9076C0.476003 17.2288 0.000879598 17.8615 6.13723e-05 18.6421C-0.000203998 18.895 0.000459726 20.7063 0.000747211 21.3783L0.0191459 21.3677C0.111384 20.7076 0.541749 20.1777 1.03479 19.893L12.9952 12.9877C15.5819 11.4942 17.3064 10.4986 21.9223 13.1636L32.6119 19.3269C32.5039 19.7582 32.3433 20.1625 32.0923 20.4882C31.9885 20.6229 31.8705 20.7443 31.7445 20.8577L21.9229 15.1545C17.307 12.4895 15.5825 13.4851 12.9958 14.9786C12.9958 14.9786 1.719 21.4893 1.03242 21.8857C0.476004 22.2069 0.000879598 22.8396 6.13723e-05 23.6202C-0.000270341 23.9314 0.000901588 26.604 0.000901588 26.6066C6.12481e-05 27.3872 0.494314 28.0299 1.05073 28.3512C1.05073 28.3512 8.88288 32.8669 10.9511 34.0593L10.96 34.3455L10.9646 34.921C11.3534 38.5972 12.9449 39.519 15.1828 40.811C15.1828 40.811 26.4597 47.3217 27.1462 47.7181C27.7027 48.0394 28.4882 48.1345 29.1646 47.7449L30.425 47.0168L30.4064 47.006C29.7888 47.2558 29.115 47.148 28.6222 46.8634L16.6617 39.9581C14.075 38.4647 12.3506 37.469 12.3506 32.139L12.3434 19.4687C12.9162 19.1284 13.4899 18.7897 14.0765 18.4745L14.0836 31.1483C14.0836 36.4783 15.8081 37.474 18.3948 38.9674C18.3948 38.9674 29.6716 45.4781 30.3582 45.8745C30.9146 46.1957 31.7001 46.2909 32.3765 45.9013C32.5957 45.7751 34.164 44.8688 34.7458 44.5326L34.7274 44.522C34.1097 44.7721 33.4356 44.6644 32.9425 44.3797L20.9821 37.4743C18.3954 35.9809 16.6709 34.9853 16.6709 29.6553L16.6636 17.3162C17.0912 17.1941 17.5216 17.131 17.9292 17.1855C18.0977 17.2081 18.2619 17.2495 18.423 17.302L18.3948 28.6593C18.3948 33.9893 20.1193 34.985 22.706 36.4784C22.706 36.4784 33.9828 42.9891 34.6694 43.3854C35.2258 43.7067 36.0113 43.8018 36.6877 43.4122C36.9574 43.2569 39.2713 41.9196 39.2735 41.9183C39.95 41.5287 40.2595 40.7793 40.2595 40.1368C40.2595 40.1368 40.2542 31.0961 40.2527 28.7088L40.4962 28.558L40.9922 28.2663C43.9815 26.0915 43.984 24.2523 43.984 21.6682V7.85394C43.984 7.21145 43.6736 6.48363 42.998 6.09263ZM10.8594 20.3369L10.8654 22.3375L9.12896 21.3359C9.12896 21.3359 10.2058 20.7142 10.8594 20.3369ZM7.65067 22.1894L10.8615 24.0412L10.8656 26.0464L5.91497 23.1915L7.65067 22.1894ZM2.61606 26.2689C1.95686 25.8889 2.16949 25.354 2.65337 25.0746C2.7656 25.0098 3.32723 24.6856 3.32723 24.6856L10.8643 29.0317L10.8656 31.0299L3.1443 26.5735L2.61606 26.2689ZM29.689 10.9395L27.9503 9.94048L32.8981 7.08054V9.08477L29.689 10.9395ZM31.3545 2.99012L31.8824 2.68492C32.5411 2.30405 32.898 2.75564 32.8981 3.31438C32.8981 3.44397 32.8981 4.09249 32.8981 4.09249L25.3656 8.44669L23.6346 7.44876L31.3545 2.99012ZM31.1624 11.7948L32.8981 10.7917C32.8981 10.7917 32.8981 12.0352 32.8981 12.7898L31.1624 11.7948ZM28.2246 22.949L21.9533 26.5226L21.9942 19.3046L28.2246 22.949ZM28.4147 35.6494L30.1442 34.6439L30.145 36.6485C30.145 36.6485 29.0682 36.0267 28.4147 35.6494ZM31.6233 37.5019L31.6216 33.7955L33.3561 32.7893L33.359 38.5041L31.6233 37.5019ZM36.6206 40.3871C36.5084 40.3223 35.9468 39.9981 35.9468 39.9981L35.9421 31.2977L37.6719 30.2975L37.6732 39.2125L37.6736 39.8223C37.6741 40.5832 37.1045 40.6665 36.6206 40.3871ZM159.357 35.9644C162.35 35.9644 164.656 35.4558 166.272 34.4377C167.889 33.4202 168.697 31.9653 168.697 30.0731C168.697 28.3971 168.032 27.1039 166.703 26.1936C165.374 25.2838 163.332 24.7091 160.578 24.4693C159.189 24.3498 158.13 24.2178 157.399 24.0742C156.669 23.9305 156.148 23.7392 155.837 23.4994C155.525 23.2602 155.37 22.9489 155.37 22.5654C155.37 21.4877 156.567 20.9489 158.962 20.9489C160.159 20.9489 161.105 21.1465 161.8 21.5416C162.494 21.9368 162.865 22.5058 162.913 23.2479H168.086C167.966 21.4518 167.08 20.0212 165.428 18.9552C163.776 17.8899 161.62 17.3567 158.962 17.3567C156.136 17.3567 153.969 17.8417 152.46 18.8116C150.951 19.7815 150.197 21.1528 150.197 22.9247C150.197 24.6013 150.862 25.8945 152.191 26.8042C153.52 27.7146 155.561 28.2893 158.315 28.5285C159.68 28.6485 160.734 28.78 161.477 28.9236C162.219 29.0673 162.746 29.2649 163.057 29.5164C163.368 29.7678 163.524 30.0974 163.524 30.5042C163.524 31.1272 163.189 31.5942 162.518 31.9052C161.847 32.2168 160.794 32.3722 159.357 32.3722C156.412 32.3722 154.867 31.4146 154.723 29.4984H149.55C149.67 31.5582 150.574 33.1508 152.263 34.2761C153.951 35.4019 156.315 35.9644 159.357 35.9644ZM142.725 15.6325H147.898V11.3937H142.725V15.6325ZM142.725 35.6052H147.898V17.716H142.725V35.6052ZM126.777 23.2121V35.6052H131.949V22.6014C131.949 22.1703 132.165 21.9548 132.596 21.9548H140.786V17.716H135.039C134.68 17.716 134.38 17.7462 134.141 17.8058C133.901 17.8659 133.625 17.9734 133.386 18.1111L127.926 21.2675C127.516 21.5047 127.226 21.7814 127.046 22.0805C126.866 22.3801 126.777 22.7573 126.777 23.2121ZM110.037 24.5412C110.348 23.4159 110.935 22.5598 111.797 21.9727C112.659 21.3863 113.761 21.0927 115.102 21.0927C116.419 21.0927 117.479 21.3923 118.281 21.9907C119.083 22.5897 119.592 23.4399 119.808 24.5412L110.037 24.5412ZM115.21 35.9644C117.892 35.9644 120.041 35.366 121.658 34.1683C123.274 32.9712 124.262 31.4145 124.621 29.4984H119.592C119.353 30.3129 118.868 30.9595 118.137 31.4382C117.407 31.9174 116.431 32.1566 115.21 32.1566C113.725 32.1566 112.528 31.8037 111.618 31.0969C110.707 30.3908 110.132 29.379 109.893 28.0615H124.837C124.932 27.511 124.981 26.8524 124.981 26.0858C124.981 24.3616 124.567 22.8411 123.741 21.5237C122.915 20.2068 121.753 19.1831 120.257 18.4524C118.76 17.7222 117.042 17.3567 115.102 17.3567C113.018 17.3567 111.192 17.7402 109.624 18.5062C108.055 19.2729 106.84 20.3562 105.978 21.7572C105.116 23.1581 104.685 24.7926 104.685 26.6605C104.685 28.5285 105.116 30.163 105.978 31.5639C106.84 32.9649 108.061 34.0488 109.642 34.8148C111.222 35.5815 113.078 35.9644 115.21 35.9644ZM89.0946 31.6537V21.6674H93.0461C94.6745 21.6674 95.9318 22.0985 96.8179 22.9606C97.7037 23.8227 98.147 25.0563 98.147 26.6605C98.147 28.2648 97.7037 29.4984 96.8179 30.3605C95.9318 31.2226 94.6745 31.6537 93.0461 31.6537H89.0946ZM83.9218 35.6051H93.98C95.848 35.6051 97.4944 35.2342 98.9193 34.4916C100.344 33.7495 101.446 32.7017 102.224 31.3484C103.002 29.9956 103.392 28.433 103.392 26.6605C103.392 24.8881 103.002 23.3261 102.224 21.9727C101.446 20.6199 100.344 19.5722 98.9193 18.8295C97.4944 18.0874 95.848 17.7159 93.98 17.7159H89.0946V11.3936H83.9218V35.6051ZM76.1632 15.6325H81.336V11.3937H76.1632V15.6325ZM76.1632 35.6051H81.336V17.7159H76.1632V35.6051ZM63.3032 35.6051H74.0798V31.3663H60.9323C60.5012 31.3663 60.2857 31.1508 60.2857 30.7197V11.3936H55.0411V30.1091C55.0411 30.5644 55.1309 30.9415 55.3105 31.2406C55.4901 31.5402 55.7806 31.8263 56.1827 32.0571C56.1827 32.0571 61.3974 35.0643 61.6507 35.2102C61.9035 35.3557 62.1653 35.4558 62.4051 35.5153C62.6443 35.5755 62.9439 35.6051 63.3032 35.6051Z" fill="#232C2F"/>
</svg>
